<svg fill="#FFFFFF" xmlns="http://www.w3.org/2000/svg" xmlns:xlink="http://www.w3.org/1999/xlink" version="1.1" x="0px" y="0px" viewBox="0 0 100 100" enable-background="new 0 0 100 100" xml:space="preserve"><path fill="#FFFFFF" d="M50.26,90.433c22.007,0,39.911-17.901,39.911-39.905S72.267,10.623,50.26,10.623  c-22.003,0-39.904,17.901-39.904,39.905S28.256,90.433,50.26,90.433z M50.26,12.623c20.904,0,37.911,17.004,37.911,37.905  S71.164,88.433,50.26,88.433c-20.9,0-37.904-17.004-37.904-37.905S29.359,12.623,50.26,12.623z"></path><path fill="#FFFFFF" d="M50.26,42.169c-0.552,0-1,0.448-1,1v24.106c0,0.553,0.448,1,1,1s1-0.447,1-1V43.169  C51.26,42.617,50.812,42.169,50.26,42.169z"></path><path fill="#FFFFFF" d="M50.26,35.904c1.16,0,2.104-0.953,2.104-2.124c0-1.163-0.943-2.108-2.104-2.108  c-1.167,0-2.116,0.946-2.116,2.108C48.144,34.951,49.093,35.904,50.26,35.904z"></path></svg>