<?xml version="1.0" encoding="UTF-8"?>
<svg fill="#FFFFFF" width="100pt" height="100pt" version="1.1" viewBox="0 0 100 100" xmlns="http://www.w3.org/2000/svg">
 <g>
  <path d="m77 63.5v2c0 0.55078-0.44922 1-1 1h-52c-0.55078 0-1-0.44922-1-1v-2c0-0.55078 0.44922-1 1-1h52c0.55078 0 1 0.44922 1 1z"/>
  <path d="m77 71.5v2c0 0.55078-0.44922 1-1 1h-52c-0.55078 0-1-0.44922-1-1v-2c0-0.55078 0.44922-1 1-1h52c0.55078 0 1 0.44922 1 1z"/>
  <path d="m77 79.5v2c0 0.55078-0.44922 1-1 1h-52c-0.55078 0-1-0.44922-1-1v-2c0-0.55078 0.44922-1 1-1h52c0.55078 0 1 0.44922 1 1z"/>
  <path d="m57 31.398v-14.391c0-0.32812 0.3125-0.57422 0.62891-0.49219 6.8867 1.8281 12.152 7.6328 13.18 14.809 0.042968 0.30078-0.19922 0.57422-0.50391 0.57422h-12.805c-0.27734 0-0.5-0.22266-0.5-0.5z"/>
  <path d="m32.113 38.953c-1.1836-10.684 6.9961-19.754 17.371-20.047 0.28125-0.007812 0.51562 0.22656 0.51562 0.50781v18.984c0 0.27734 0.22266 0.5 0.5 0.5h16.809c0.30469 0 0.54688 0.27344 0.50391 0.57422-1.3164 9.1914-9.5703 16.145-19.289 15.367-8.4883-0.67578-15.473-7.4258-16.41-15.887z"/>
  <path d="m81 8.5h-62c-2.2109 0-4 1.7891-4 4v75c0 2.2109 1.7891 4 4 4h62c2.2109 0 4-1.7891 4-4v-75c0-2.2109-1.7891-4-4-4zm0 79h-62v-75h62z"/>
 </g>
</svg>
