<?xml version="1.0" encoding="UTF-8"?>
<svg fill="#4281C6" width="100pt" height="100pt" version="1.1" viewBox="0 0 100 100" xmlns="http://www.w3.org/2000/svg">
 <path d="m57.066 6.582c6.2578 2.5469 9.6406 6.5312 11.098 12.762 0.63281 2.6562 0.78906 2.6992-1.0234 2.6719-0.45703-0.007813-4.6445-0.015625-5.1016-0.015625-2.207 0-1.7266 0.53125-3.2344-3.7148-2.7617-7.3086-12.141-7.0625-16.094-3.5-2.9297 2.6406-3.1992 7.1133 0.0625 9.9453 3.8359 3.3281 8.1641 6.1055 12.34 9.0312 3.9531 2.7695 8.168 5.1914 11.941 8.1836 7.1953 5.707 6.6992 18.648-1.7773 22.988-0.88281 0.42188-1.5234 0.80469-3.1523 1.6094 1.0156 1.125 2.1758 2.2539 3.0312 3.1406 6.9453 7.1641 4.7148 19.18-4.4453 23.102-7.2695 3.1133-14.629 3.0195-21.668-0.74609-4.6328-2.4805-7.0625-6.7109-8.1172-11.77-0.089843-0.42969-0.11719-1.2461 0.019531-1.2969 1.9141-0.63672 3.8945-1.0898 5.8125-1.6172 1.1641-0.32031 1.4297 1.2891 1.8828 2.1484 1.125 2.125 1.5625 2.9688 3.6484 5.0234 4.2461 4.1836 13 3.7578 16.262 0.6875 3.1016-2.918 3.1719-7.9336-0.46484-10.883-4.3086-3.5-9.0586-6.4492-13.562-9.7148-4.1953-3.0391-8.6055-5.8594-12.41-9.3359-6.7656-6.1836-5.2344-18.074 3.875-22.73 0.46094-0.23438 0.46094-0.23438 1.6094-0.90234-0.71484-0.97656-1.4375-1.9688-2.0781-2.8125-6.3633-8.375-2.8711-18.93 7.1172-22.43 8.4219-2.9492 14.43 0.17578 14.43 0.17578zm7.457 47.836c-0.44531-3.418-2.6562-6.1172-5.5234-8.1484-5.1406-3.6328-10.453-7.0195-15.746-10.426-0.5625-0.36328-1.6875-0.48438-2.2188-0.16406-7.3398 4.4297-7.7188 11.035-1.8047 15.484 5.5273 4.1562 11.496 7.7266 17.312 11.492 0.52344 0.33984 1.4102 0.4375 2.0117 0.26172 2.9219-0.85547 5.9961-5.1641 5.9688-8.5z" fill-rule="evenodd"/>
</svg>
