<?xml version="1.0" encoding="UTF-8"?>
<svg fill="#FFFFFF" width="100pt" height="100pt" version="1.1" viewBox="0 0 100 100" xmlns="http://www.w3.org/2000/svg">
 <g>
  <path d="m11.398 54.973l-5.6289-16.301 14.434-4.9844 5.625 16.309zm-1.832-14.453l3.6797 10.66 8.7891-3.0312-3.6797-10.664z"/>
  <path d="m22.145 48.469l-3.9062-11.309 30.668-10.586 3.8984 11.312zm-0.10938-9.4609l1.957 5.6641 25.02-8.6367-1.9531-5.668z"/>
  <path d="m51.328 42.73l-6.582-19.051 29.297-10.109 6.5742 19.055zm-2.7891-17.203l4.6367 13.406 23.645-8.1602-4.6289-13.41z"/>
  <path d="m93.148 36.543l-14.578-0.69922-8.1328-23.547 11.047-9.543zm-12.418-3.5859l8.1562 0.39062-8.7852-25.453-6.1836 5.3398z"/>
  <path d="m50.273 40.832h2.9844v55.93h-2.9844z"/>
  <path d="m49.668 38.367l2.8203 0.98047-20.07 57.746-2.8203-0.98047z"/>
  <path d="m54.809 40.641l19.309 55.629-2.8203 0.98047-19.309-55.629z"/>
  <path d="m38.828 72.625h26.016v2.9844h-26.016z"/>
 </g>
</svg>
