<svg fill="#FFFFFF" xmlns="http://www.w3.org/2000/svg" xmlns:xlink="http://www.w3.org/1999/xlink" version="1.1" x="0px" y="0px" viewBox="0 0 100 100" style="enable-background:new 0 0 100 100;" xml:space="preserve"><g><path d="M54.3,21.1c-0.9-1.6-2.5-2.5-4.3-2.5s-3.4,0.9-4.3,2.5L15.5,74v0c-0.9,1.6-0.9,3.4,0,5c0.9,1.6,2.5,2.5,4.3,2.5h60.2   c1.8,0,3.4-0.9,4.3-2.5c0.9-1.6,0.9-3.4,0-5L54.3,21.1z M82.7,78c-0.5,0.9-1.5,1.5-2.6,1.5H19.9c-1.1,0-2-0.6-2.6-1.5   c-0.5-0.9-0.5-2.1,0-3v0l30.1-52.9c0.5-0.9,1.5-1.5,2.6-1.5s2.1,0.6,2.6,1.5L82.7,75C83.3,75.9,83.3,77,82.7,78z"></path><path d="M50.4,41.9c-0.6,0-1,0.4-1,1v14c0,0.6,0.4,1,1,1s1-0.4,1-1v-14C51.4,42.4,51,41.9,50.4,41.9z"></path><path d="M50.4,61.9c-0.6,0-1,0.4-1,1v3c0,0.6,0.4,1,1,1s1-0.4,1-1v-3C51.4,62.4,51,61.9,50.4,61.9z"></path></g></svg>